<?xml version="1.0" standalone="no"?>
<!DOCTYPE svg PUBLIC "-//W3C//DTD SVG 1.1//EN" "http://www.w3.org/Graphics/SVG/1.1/DTD/svg11.dtd" >
<svg xmlns="http://www.w3.org/2000/svg">
<metadata>Generated by IcoMoon</metadata>
<defs>
<font id="clevericons" horiz-adv-x="1024">
<font-face units-per-em="1024" ascent="960" descent="-64" />
<missing-glyph horiz-adv-x="1024" />
<glyph unicode="&#x20;" horiz-adv-x="512" d="" />
<glyph unicode="&#xe900;" glyph-name="zoom-selection" d="M0 950.857v-804.571h172.859c-14.785 21.014-28.523 44.975-39.997 70.184l-1.146 2.812h-58.288v658.725h658.139v-58.149c28.238-12.673 52.394-26.508 75.016-42.382l-1.434 0.954v172.427zM548.571 782.431c-209.386 0-379.575-170.759-379.575-380.145s170.189-380.145 379.575-380.145c80.121 0 154.309 25.271 215.713 67.862l142.716-142.863c12.523-12.577 29.852-20.359 48.998-20.359s36.476 7.782 48.996 20.357l0.002 0.002c12.574 12.526 20.354 29.855 20.354 49.002s-7.78 36.476-20.352 49l-0.002 0.002-142.848 142.994c41.889 61.089 66.56 134.758 66.56 214.148 0 209.386-170.752 380.145-380.138 380.145zM548.571 661.431c143.653 0 259.145-115.493 259.145-259.145s-115.493-259.145-259.145-259.145c-143.653 0-258.575 115.493-258.575 259.145s114.929 259.145 258.575 259.145zM512.293 548.571v-109.714h-109.714v-73.143h109.714v-109.714h73.143v109.714h109.714v73.143h-109.714v109.714z" />
<glyph unicode="&#xe901;" glyph-name="zoom-selection-dashed" d="M0 950.857v-804.571h171.286c-14.785 21.014-28.523 44.975-39.997 70.185l-1.146 2.812h-56.715v73.289h-73.143v73.143h73.143v146.286h-73.143v73.143h73.143v146.286h-73.143v73.143h73.143v73.435h73.143v72.85zM219.721 950.857v-72.85h146.286v72.85zM439.15 950.857v-72.85h146.286v72.85zM658.578 950.857v-72.85h72.997v-56.576c28.237-12.69 52.387-26.524 75.011-42.388l-1.444 0.959v170.854zM548.571 782.431c-209.386 0-379.575-170.759-379.575-380.145s170.189-380.145 379.575-380.145c80.121 0 154.309 25.271 215.713 67.862l142.716-142.863c12.529-12.564 29.856-20.338 48.998-20.338s36.47 7.774 48.997 20.336l0.002 0.002c12.574 12.526 20.354 29.855 20.354 49.002s-7.78 36.476-20.352 49l-0.002 0.002-142.848 142.994c41.889 61.089 66.56 134.758 66.56 214.148 0 209.386-170.752 380.145-380.138 380.145zM548.571 661.431c143.653 0 259.145-115.493 259.145-259.145s-115.493-259.145-259.145-259.145c-143.653 0-258.575 115.493-258.575 259.145s114.929 259.145 258.575 259.145zM512.293 548.571v-109.714h-109.714v-73.143h109.714v-109.714h73.143v109.714h109.714v73.143h-109.714v109.714z" />
<glyph unicode="&#xe902;" glyph-name="ruler" d="M768 914.286l-52.663-52.663 103.863-102.4-41.691-42.423-103.131 103.863-68.023-68.023 172.617-174.080-40.96-40.96-173.349 173.349-68.754-68.754 103.863-103.131-41.691-40.96-103.131 102.4-68.754-68.023 173.349-172.617-41.691-41.691-172.617 173.349-68.754-68.754 103.131-102.4-40.96-42.423-103.131 103.863-68.754-68.754 173.349-173.349-40.96-40.96-174.811 172.617-87.771-88.503 219.429-219.429 731.429 731.429z" />
<glyph unicode="&#xe903;" glyph-name="ruler-triangle" d="M73.143 950.857v-950.857h950.857l-161.646 161.646-61.44-60.709-41.691 41.691 61.44 60.709-68.023 68.023-103.131-102.4-41.691 40.96 102.4 103.131-68.023 68.754-61.44-61.44-40.96 40.96 61.44 61.44-68.754 68.754-102.4-103.131-41.691 41.691 102.4 102.4-68.023 68.754-60.709-61.44-41.691 40.96 61.44 61.44-68.754 68.754-102.4-102.4-41.691 40.229 102.4 103.131-88.503 89.234zM219.429 512l365.714-365.714h-365.714z" />
<glyph unicode="&#xe904;" glyph-name="fullscreen" d="M0 950.857v-365.714h146.286v219.429h219.429v146.286zM658.286 950.857v-146.286h219.429v-219.429h146.286v365.714zM0 292.571v-365.714h365.714v146.286h-219.429v219.429zM877.714 292.571v-219.429h-219.429v-146.286h365.714v365.714z" />
<glyph unicode="&#xe905;" glyph-name="fullscreen-box" d="M0 950.857v-365.714h146.286v219.429h219.429v146.286h-365.714zM658.286 950.857v-146.286h219.429v-219.429h146.286v365.714h-365.714zM292.571 658.286v-438.857h438.857v438.857h-438.857zM0 292.571v-365.714h365.714v146.286h-219.429v219.429h-146.286zM877.714 292.571v-219.429h-219.429v-146.286h365.714v365.714h-146.286z" />
<glyph unicode="&#xe906;" glyph-name="preview" d="M146.432 950.857c-36.718 0-73.289-36.571-73.143-73.143v-231.863c22.967 18.432 47.543 35.547 73.143 51.2v180.663l732.014-7.826-0.146-174.811c25.454-15.579 49.591-32.695 72.558-51.2v233.838c0 36.571-36.571 73.143-77.751 73.143h-726.674zM508.27 726.747c-72.85-0.146-110.373-5.559-175.982-25.6-128.512-39.278-249.856-124.050-316.123-221.038-23.991-34.962-21.504-53.76 12.288-97.792 88.503-115.346 242.615-203.922 390.144-224.037 20.114-2.779 40.667-5.632 45.714-6.437 17.701-2.779 108.471 1.243 142.848 6.437 152.722 23.040 305.664 112.274 392.558 229.157 33.426 44.91 32.768 60.709-4.315 108.983-58.661 76.434-147.602 142.994-245.394 183.589-83.31 34.523-146.944 46.811-241.737 46.738zM510.976 655.579c19.31-1.243 27.867-8.777 27.867-23.698 0-14.629-10.606-21.431-38.254-24.869-58.368-7.314-98.962-42.862-106.057-93.038-1.536-11.264-5.486-23.040-8.777-26.258-12.727-12.288-36.059-9.143-44.763 6.144-8.485 14.921 3.877 64 22.601 89.966 25.746 35.84 78.482 65.829 124.562 70.949 8.85 0.878 16.457 1.17 22.821 0.731zM287.598 614.839c0.731-0.731-1.829-6.729-5.705-13.531-30.574-52.736-33.573-127.415-7.168-182.857 26.697-56.32 89.234-108.251 152.576-126.903 98.889-29.111 200.411-6.656 271.36 59.977 71.899 67.511 89.6 169.984 43.374 249.783-3.95 6.802-6.437 12.8-5.632 13.531 2.414 2.121 63.342-32.402 88.869-50.249 31.817-22.235 84.407-71.607 107.52-101.010l19.237-24.283-17.554-21.723c-86.339-105.736-209.671-178.416-349.992-198.244l-2.922-0.338c-20.747-2.744-44.737-4.31-69.093-4.31-48.519 0-95.586 6.214-140.45 17.891l3.865-0.854c-106.935 27.429-214.235 96.914-286.427 185.856l-17.554 21.723 19.237 24.283c23.186 29.403 75.63 78.775 107.447 100.937 25.6 17.92 86.601 52.443 89.015 50.322zM951.003 233.838c-21.398-17.546-45.219-34.639-70.11-50.178l-2.887-1.68-0.146-181.979h-731.429v181.979c-27.86 17.198-51.729 34.245-74.402 52.705l1.259-0.993v-233.691c-0.146-36.571 36.425-73.143 73.143-73.143h731.429c36.425 0 72.997 36.571 73.143 73.143v233.838z" />
<glyph unicode="&#xe907;" glyph-name="layers" d="M496 886.857l-432-192v-64l432-192h32l432 192v64l-432 192h-32zM64 486.857v-112l432-192h32l432 192v112l-432-192h-32l-432 192zM64 230.857v-112l432-192h32l432 192v112l-432-192h-32l-432 192z" />
<glyph unicode="&#xe908;" glyph-name="sort-asc-down" d="M536.283 950.857c-0.044 0-0.095 0-0.147 0-13.331 0-24.137-10.807-24.137-24.137 0-0.052 0-0.103 0-0.155v0.008-97.719c0-0.044 0-0.095 0-0.147 0-13.331 10.807-24.137 24.137-24.137 0.052 0 0.103 0 0.155 0h134.282c0.044 0 0.095 0 0.147 0 13.331 0 24.137 10.807 24.137 24.137 0 0.052 0 0.103 0 0.155v-0.008 97.719c0 0.044 0 0.095 0 0.147 0 13.331-10.807 24.137-24.137 24.137-0.052 0-0.103 0-0.155 0h-134.282zM536.283 658.286c-0.044 0-0.095 0-0.147 0-13.331 0-24.137-10.807-24.137-24.137 0-0.052 0-0.103 0-0.155v0.008-97.719c0-0.044 0-0.095 0-0.147 0-13.331 10.807-24.137 24.137-24.137 0.052 0 0.103 0 0.155 0h243.997c0.044 0 0.095 0 0.147 0 13.331 0 24.137 10.807 24.137 24.137 0 0.052 0 0.103 0 0.155v-0.008 97.719c0 0.044 0 0.095 0 0.147 0 13.331-10.807 24.137-24.137 24.137-0.052 0-0.103 0-0.155 0h-243.997zM536.283 365.714c-0.044 0-0.095 0-0.147 0-13.331 0-24.137-10.807-24.137-24.137 0-0.052 0-0.103 0-0.155v0.008-97.719c0-0.044 0-0.095 0-0.147 0-13.331 10.807-24.137 24.137-24.137 0.052 0 0.103 0 0.155 0h353.711c0.044 0 0.095 0 0.147 0 13.331 0 24.137 10.807 24.137 24.137 0 0.052 0 0.103 0 0.155v-0.008 97.719c0 0.044 0 0.095 0 0.147 0 13.331-10.807 24.137-24.137 24.137-0.052 0-0.103 0-0.155 0h-353.711zM536.283 73.143c-0.044 0-0.095 0-0.147 0-13.331 0-24.137-10.807-24.137-24.137 0-0.052 0-0.103 0-0.155v0.008-97.719c0-0.044 0-0.095 0-0.147 0-13.331 10.807-24.137 24.137-24.137 0.052 0 0.103 0 0.155 0h463.425c0.044 0 0.095 0 0.147 0 13.331 0 24.137 10.807 24.137 24.137 0 0.052 0 0.103 0 0.155v-0.008 97.719c0 0.044 0 0.095 0 0.147 0 13.331-10.807 24.137-24.137 24.137-0.052 0-0.103 0-0.155 0h-463.425zM170.569 950.857c-0.044 0-0.095 0-0.147 0-13.331 0-24.137-10.807-24.137-24.137 0-0.052 0-0.103 0-0.155v0.008-780.288h-109.714c-27.209-6.583-20.699-24.722-0.439-44.983l166.034-166.181c9.509-9.509 25.015-9.509 34.523 0l166.619 166.766c22.382 22.382 24.137 37.669-1.024 44.398h-109.714v780.288c0 0.044 0 0.095 0 0.147 0 13.331-10.807 24.137-24.137 24.137-0.052 0-0.103 0-0.155 0h0.008z" />
<glyph unicode="&#xe909;" glyph-name="sort-asc-up" d="M536.283 950.857c-0.044 0-0.095 0-0.147 0-13.331 0-24.137-10.807-24.137-24.137 0-0.052 0-0.103 0-0.155v0.008-97.719c0-0.044 0-0.095 0-0.147 0-13.331 10.807-24.137 24.137-24.137 0.052 0 0.103 0 0.155 0h134.282c0.044 0 0.095 0 0.147 0 13.331 0 24.137 10.807 24.137 24.137 0 0.052 0 0.103 0 0.155v-0.008 97.719c0 0.044 0 0.095 0 0.147 0 13.331-10.807 24.137-24.137 24.137-0.052 0-0.103 0-0.155 0h-134.282zM536.283 658.286c-0.044 0-0.095 0-0.147 0-13.331 0-24.137-10.807-24.137-24.137 0-0.052 0-0.103 0-0.155v0.008-97.719c0-0.044 0-0.095 0-0.147 0-13.331 10.807-24.137 24.137-24.137 0.052 0 0.103 0 0.155 0h243.997c0.044 0 0.095 0 0.147 0 13.331 0 24.137 10.807 24.137 24.137 0 0.052 0 0.103 0 0.155v-0.008 97.719c0 0.044 0 0.095 0 0.147 0 13.331-10.807 24.137-24.137 24.137-0.052 0-0.103 0-0.155 0h-243.997zM536.283 365.714c-0.044 0-0.095 0-0.147 0-13.331 0-24.137-10.807-24.137-24.137 0-0.052 0-0.103 0-0.155v0.008-97.719c0-0.044 0-0.095 0-0.147 0-13.331 10.807-24.137 24.137-24.137 0.052 0 0.103 0 0.155 0h353.711c0.044 0 0.095 0 0.147 0 13.331 0 24.137 10.807 24.137 24.137 0 0.052 0 0.103 0 0.155v-0.008 97.719c0 0.044 0 0.095 0 0.147 0 13.331-10.807 24.137-24.137 24.137-0.052 0-0.103 0-0.155 0h-353.711zM536.283 73.143c-0.044 0-0.095 0-0.147 0-13.331 0-24.137-10.807-24.137-24.137 0-0.052 0-0.103 0-0.155v0.008-97.719c0-0.044 0-0.095 0-0.147 0-13.331 10.807-24.137 24.137-24.137 0.052 0 0.103 0 0.155 0h463.425c0.044 0 0.095 0 0.147 0 13.331 0 24.137 10.807 24.137 24.137 0 0.052 0 0.103 0 0.155v-0.008 97.719c0 0.044 0 0.095 0 0.147 0 13.331-10.807 24.137-24.137 24.137-0.052 0-0.103 0-0.155 0h-463.425zM170.569-72.046c-0.044 0-0.095 0-0.147 0-13.331 0-24.137 10.807-24.137 24.137 0 0.052 0 0.103 0 0.155v-0.008 780.288h-109.714c-27.209 6.583-20.699 24.722-0.439 45.056l166.034 166.107c9.509 9.509 25.015 9.509 34.523 0l166.619-166.766c22.382-22.309 24.137-37.669-1.024-44.398h-109.714v-780.288c0-0.044 0-0.095 0-0.147 0-13.331-10.807-24.137-24.137-24.137-0.052 0-0.103 0-0.155 0h0.008z" />
<glyph unicode="&#xe90a;" glyph-name="sort-desc-down" d="M536.283-73.143c-0.044 0-0.095 0-0.147 0-13.331 0-24.137 10.807-24.137 24.137 0 0.052 0 0.103 0 0.155v-0.008 97.719c0 0.044 0 0.095 0 0.147 0 13.331 10.807 24.137 24.137 24.137 0.052 0 0.103 0 0.155 0h134.282c0.044 0 0.095 0 0.147 0 13.331 0 24.137-10.807 24.137-24.137 0-0.052 0-0.103 0-0.155v0.008-97.719c0-0.044 0-0.095 0-0.147 0-13.331-10.807-24.137-24.137-24.137-0.052 0-0.103 0-0.155 0h0.008zM536.283 219.428c-0.044 0-0.095 0-0.147 0-13.331 0-24.137 10.807-24.137 24.137 0 0.052 0 0.103 0 0.155v-0.008 97.719c0 0.044 0 0.095 0 0.147 0 13.331 10.807 24.137 24.137 24.137 0.052 0 0.103 0 0.155 0h243.997c0.044 0 0.095 0 0.147 0 13.331 0 24.137-10.807 24.137-24.137 0-0.052 0-0.103 0-0.155v0.008-97.719c0-0.044 0-0.095 0-0.147 0-13.331-10.807-24.137-24.137-24.137-0.052 0-0.103 0-0.155 0h0.008zM536.283 512c-0.044 0-0.095 0-0.147 0-13.331 0-24.137 10.807-24.137 24.137 0 0.052 0 0.103 0 0.155v-0.008 97.719c0 0.044 0 0.095 0 0.147 0 13.331 10.807 24.137 24.137 24.137 0.052 0 0.103 0 0.155 0h353.711c0.044 0 0.095 0 0.147 0 13.331 0 24.137-10.807 24.137-24.137 0-0.052 0-0.103 0-0.155v0.008-97.719c0-0.044 0-0.095 0-0.147 0-13.331-10.807-24.137-24.137-24.137-0.052 0-0.103 0-0.155 0h0.008zM536.283 804.571c-0.044 0-0.095 0-0.147 0-13.331 0-24.137 10.807-24.137 24.137 0 0.052 0 0.103 0 0.155v-0.008 97.719c0 0.044 0 0.095 0 0.147 0 13.331 10.807 24.137 24.137 24.137 0.052 0 0.103 0 0.155 0h463.425c0.044 0 0.095 0 0.147 0 13.331 0 24.137-10.807 24.137-24.137 0-0.052 0-0.103 0-0.155v0.008-97.719c0-0.044 0-0.095 0-0.147 0-13.331-10.807-24.137-24.137-24.137-0.052 0-0.103 0-0.155 0h0.008zM170.569 949.76c-0.044 0-0.095 0-0.147 0-13.331 0-24.137-10.807-24.137-24.137 0-0.052 0-0.103 0-0.155v0.008-780.288h-109.714c-27.209-6.583-20.699-24.722-0.439-45.056l166.034-166.107c9.509-9.509 25.015-9.509 34.523 0l166.619 166.766c22.382 22.309 24.137 37.669-1.024 44.398h-109.714v780.288c0 0.044 0 0.095 0 0.147 0 13.331-10.807 24.137-24.137 24.137-0.052 0-0.103 0-0.155 0h0.008z" />
<glyph unicode="&#xe90b;" glyph-name="sort-desc-up" d="M536.283-73.143c-0.044 0-0.095 0-0.147 0-13.331 0-24.137 10.807-24.137 24.137 0 0.052 0 0.103 0 0.155v-0.008 97.719c0 0.044 0 0.095 0 0.147 0 13.331 10.807 24.137 24.137 24.137 0.052 0 0.103 0 0.155 0h134.282c0.044 0 0.095 0 0.147 0 13.331 0 24.137-10.807 24.137-24.137 0-0.052 0-0.103 0-0.155v0.008-97.719c0-0.044 0-0.095 0-0.147 0-13.331-10.807-24.137-24.137-24.137-0.052 0-0.103 0-0.155 0h0.008zM536.283 219.428c-0.044 0-0.095 0-0.147 0-13.331 0-24.137 10.807-24.137 24.137 0 0.052 0 0.103 0 0.155v-0.008 97.719c0 0.044 0 0.095 0 0.147 0 13.331 10.807 24.137 24.137 24.137 0.052 0 0.103 0 0.155 0h243.997c0.044 0 0.095 0 0.147 0 13.331 0 24.137-10.807 24.137-24.137 0-0.052 0-0.103 0-0.155v0.008-97.719c0-0.044 0-0.095 0-0.147 0-13.331-10.807-24.137-24.137-24.137-0.052 0-0.103 0-0.155 0h0.008zM536.283 512c-0.044 0-0.095 0-0.147 0-13.331 0-24.137 10.807-24.137 24.137 0 0.052 0 0.103 0 0.155v-0.008 97.719c0 0.044 0 0.095 0 0.147 0 13.331 10.807 24.137 24.137 24.137 0.052 0 0.103 0 0.155 0h353.711c0.044 0 0.095 0 0.147 0 13.331 0 24.137-10.807 24.137-24.137 0-0.052 0-0.103 0-0.155v0.008-97.719c0-0.044 0-0.095 0-0.147 0-13.331-10.807-24.137-24.137-24.137-0.052 0-0.103 0-0.155 0h0.008zM536.283 804.571c-0.044 0-0.095 0-0.147 0-13.331 0-24.137 10.807-24.137 24.137 0 0.052 0 0.103 0 0.155v-0.008 97.719c0 0.044 0 0.095 0 0.147 0 13.331 10.807 24.137 24.137 24.137 0.052 0 0.103 0 0.155 0h463.425c0.044 0 0.095 0 0.147 0 13.331 0 24.137-10.807 24.137-24.137 0-0.052 0-0.103 0-0.155v0.008-97.719c0-0.044 0-0.095 0-0.147 0-13.331-10.807-24.137-24.137-24.137-0.052 0-0.103 0-0.155 0h0.008zM170.569-73.143c-0.044 0-0.095 0-0.147 0-13.331 0-24.137 10.807-24.137 24.137 0 0.052 0 0.103 0 0.155v-0.008 780.288h-109.714c-27.209 6.583-20.699 24.722-0.439 44.983l166.034 166.181c9.509 9.509 25.015 9.509 34.523 0l166.619-166.766c22.382-22.382 24.137-37.669-1.024-44.398h-109.714v-780.288c0-0.044 0-0.095 0-0.147 0-13.331-10.807-24.137-24.137-24.137-0.052 0-0.103 0-0.155 0h0.008z" />
<glyph unicode="&#xe90c;" glyph-name="filter-round-cross" d="M475.429 906.971c-222.354 0-402.286-62.171-402.286-136.777 0-12.434 5.12-24.869 15.36-36.571l277.211-277.211v-263.314c0-59.977 45.349-106.057 73.143-130.926 29.257-24.869 117.76-74.606 138.971-53.394 7.314 5.851 7.314 11.703 7.314 20.48v16.823c-5.555 3.409-10.355 7.279-14.608 11.682l-0.020 0.021-73.143 73.143c-13.363 13.257-21.636 31.628-21.636 51.931s8.272 38.674 21.631 51.927l87.776 87.045v14.629l-87.771 87.771c-13.363 13.257-21.636 31.628-21.636 51.931s8.272 38.674 21.631 51.927l73.148 73.148c12.803 12.711 30.289 20.72 49.644 21.21l0.093 0.002c0.342 0.006 0.746 0.009 1.151 0.009 20.46 0 38.957-8.4 52.232-21.94l27.075-27.075 152.869 152.869c18.286 18.286 24.137 29.257 24.137 45.349 0 73.874-179.931 135.314-402.286 135.314zM475.429 847.726c178.469 0 322.56-35.109 322.56-79.726s-144.091-80.457-322.56-80.457c-178.469 0-322.56 35.84-322.56 80.457s144.091 79.726 322.56 79.726zM621.714 548.571l-73.143-73.143 146.286-146.286-146.286-146.286 73.143-73.143 146.286 146.286 146.286-146.286 73.143 73.143-146.286 146.286 146.286 146.286-73.143 73.143-146.286-146.286-146.286 146.286z" />
<glyph unicode="&#xe90d;" glyph-name="filter-round" d="M475.429 906.24c-222.354 0-402.286-60.709-402.286-135.314 0-12.434 5.12-24.869 15.36-36.571l277.211-277.943v-263.314c0-59.977 45.349-106.057 73.143-130.926 29.257-24.869 117.76-74.606 138.971-53.394 7.314 5.851 7.314 11.703 7.314 20.48v427.154l268.434 269.166c18.286 18.286 24.137 28.526 24.137 45.349 0 74.606-179.931 136.046-402.286 136.046zM475.429 847.726c178.469 0 322.56-35.109 322.56-79.726s-144.091-80.457-322.56-80.457c-178.469 0-322.56 35.84-322.56 80.457s144.091 79.726 322.56 79.726z" />
<glyph unicode="&#xe90e;" glyph-name="filter-cross" d="M840.411 805.303l-730.697-0.731c-20.198 0-36.571-16.374-36.571-36.571v0c0-12.434 7.314-20.48 13.897-29.257l278.674-277.943v-277.943c0-13.166 7.314-21.943 13.897-29.257l139.703-138.971c8.777-8.777 17.554-13.897 28.526-13.897 11.648 0.242 21.928 5.894 28.459 14.536l0.067 0.092c-16.823 5.12-32.183 14.629-46.080 27.794l-48.274 48.274c-21.979 22.41-35.544 53.141-35.544 87.040s13.565 64.63 35.564 87.060l-0.020-0.020 64.366 63.634-64.366 63.634c-21.979 22.41-35.544 53.141-35.544 87.040s13.565 64.63 35.564 87.060l48.254 48.254c24.137 23.406 55.589 35.109 87.040 35.109s62.903-11.703 87.040-35.109l16.823-16.823 141.897 141.897c8.777 8.777 13.897 16.823 13.897 28.526 0 20.198-16.374 36.571-36.571 36.571v0zM948.663 558.080c-7.676 7.672-18.278 12.416-29.989 12.416s-22.312-4.745-29.989-12.417v0l-120.686-121.417-120.686 121.417c-7.676 7.672-18.278 12.416-29.989 12.416s-22.312-4.745-29.989-12.417l-48.274-48.274c-7.672-7.676-12.416-18.278-12.416-29.989s4.745-22.312 12.417-29.989v0l121.417-120.686-121.417-120.686c-7.672-7.676-12.416-18.278-12.416-29.989s4.745-22.312 12.417-29.989l48.274-48.274c7.825-7.337 18.38-11.844 29.989-11.844s22.164 4.507 30.012 11.867l-0.024-0.022 120.686 121.417 120.686-121.417c16.823-16.091 43.886-16.091 59.977 0l48.274 48.274c7.672 7.676 12.416 18.278 12.416 29.989s-4.745 22.312-12.417 29.989v0l-121.417 120.686 121.417 120.686c7.672 7.676 12.416 18.278 12.416 29.989s-4.745 22.312-12.417 29.989v0z" />
<glyph unicode="&#xe90f;" glyph-name="coin-eur" d="M512 907.41c-258.775 0-468.553-209.778-468.553-468.553s209.778-468.553 468.553-468.553v0c258.775 0 468.553 209.778 468.553 468.553s-209.778 468.553-468.553 468.553v0zM534.967 647.607c36.937 0 69.925-8.046 99.035-24.357l-23.259-51.712c-28.453 14.043-53.614 21.065-75.776 21.065-25.966 0-47.25-7.826-63.854-23.333-16.384-15.506-27.429-36.645-32.914-68.023h126.098v-42.569h-130.267l-0.585-12.434v-17.408l0.585-13.166h112.859v-42.277h-108.178c11.776-57.49 45.349-83.968 100.718-83.968 26.331 0 53.394 5.705 80.969 17.115v-56.101c-24.137-11.264-52.297-16.823-84.407-16.823-44.398 0-80.457 12.215-108.251 36.571-27.648 24.283-45.861 57.125-54.345 103.205h-41.984v42.35h37.595l-0.585 12.507v10.313l0.585 20.114h-37.669v42.642h41.472c6.949 46.226 24.649 80.311 52.809 106.642 28.233 26.331 64.731 39.643 109.275 39.643z" />
<glyph unicode="&#xe910;" glyph-name="coin-czk" d="M512 907.41c-258.775 0-468.553-209.778-468.553-468.553s209.778-468.553 468.553-468.553v0c258.775 0 468.553 209.778 468.553 468.553s-209.778 468.553-468.553 468.553v0zM596.553 606.574h31.744c18.432-11.995 33.353-24.283 44.983-36.718 12.946 13.312 28.087 25.6 45.568 36.718h31.89v-5.413c-16.823-17.554-28.672-30.281-35.621-38.619-5.433-6.392-10.594-13.462-15.218-20.899l-0.435-0.751h-52.005c-8.704 13.97-25.6 34.085-50.907 60.27zM319.854 585.143h47.835v-139.703c13.166 16.018 26.112 31.305 39.058 46.080l78.921 93.623h54.418c-51.2-60.050-87.771-102.766-109.861-128.293l112.859-164.425h-55.442l-91.794 132.608-28.16-23.040v-109.568h-47.835zM678.839 517.851c23.406 0 44.325-4.389 63.049-13.019l-14.19-37.815c-19.895 7.753-36.352 11.557-49.298 11.557-38.254 0-57.417-25.307-57.417-76.142 0-24.869 4.827-43.593 14.336-56.174 9.509-12.434 23.552-18.578 41.984-18.578 20.919 0 40.741 5.193 59.392 15.579v-40.96c-7.773-4.656-16.789-8.315-26.37-10.488l-0.62-0.118c-9.509-2.121-21.065-3.291-34.67-3.291-33.499 0-58.953 9.801-76.434 29.257-17.408 19.675-26.039 47.762-26.039 84.334 0 37.303 9.143 65.829 27.282 85.87 18.286 20.041 44.617 29.989 78.994 29.989z" />
<glyph unicode="&#xe911;" glyph-name="czech-post" horiz-adv-x="1463" d="M1350.949 815.543h-48.274l-16.091-1.463h-5.12l-4.389-5.12-2.194-5.12v-5.12l4.389-13.166c13.437-41.968 21.181-90.243 21.181-140.328 0-33.435-3.451-66.063-10.017-97.549l0.539 3.088c-0.731-8.777-0.731-7.314 1.463-17.554 7.050-29.458 11.092-63.279 11.092-98.044 0-41.106-5.651-80.891-16.22-118.622l0.739 3.089-6.583-19.017c-2.926-14.629-14.629-41.691-24.869-59.977-12.434-24.137-29.257-44.617-45.349-67.291 53.979 36.927 99.907 80.762 137.913 130.931l1.059 1.458c65.904 92.14 105.378 207.104 105.378 331.288 0 27.101-1.88 53.763-5.517 79.863l0.344-3.014c-3.156 28.899-8.302 54.969-15.451 80.197l0.823-3.397c-5.851 14.629-10.971 21.943-15.36 23.406 2.194 0 0 0 0 0-13.438 1.335-29.046 2.096-44.831 2.096-8.672 0-17.291-0.23-25.85-0.683l1.196 0.051zM264.777 815.543h-197.486c-7.503-0.522-14.484-1.823-21.158-3.833l0.678 0.175-4.389-2.926c-4.389-4.389-5.851-4.389-5.851-7.314v-19.017c18.85-367.886 292.67-666.525 647.286-723.529l4.417-0.585c33.297-5.028 71.719-7.899 110.811-7.899s77.515 2.872 115.067 8.415l-4.256-0.516c47.378 4.457 90.793 17.476 130.028 37.512l-2.028-0.94c126.719 60.355 212.737 187.39 212.737 334.516 0 19.789-1.556 39.215-4.553 58.161l0.273-2.095c-22.192 185.961-178.966 328.759-369.092 328.759-19.198 0-38.055-1.456-56.468-4.263l2.063 0.259c-80.457-11.703-150.674-51.2-212.114-113.371-37.367-37.319-66.221-83.152-83.405-134.342l-0.709-2.435-3.657-10.971 1.463-8.046c6.583-24.869 24.869-64.366 42.423-92.16 36.571-59.977 85.577-101.669 138.971-128-25.142 35.205-40.207 79.109-40.229 126.532v0.005c2.926 58.514 25.6 109.714 67.291 148.48 35.284 36.43 84.648 59.043 139.292 59.043 5.035 0 10.025-0.192 14.964-0.569l-0.656 0.040c32.183-1.463 53.394-7.314 78.994-19.749 62.48-30.69 107.902-87.903 121.903-156.548l0.245-1.441c3.657-20.48 3.657-59.977 0-80.457-16.948-87.256-84.63-154.938-170.524-171.665l-1.361-0.221c-24.137-4.389-71.68-4.389-96.549 0-205.831 33.071-361.177 209.408-361.177 422.028 0 43.021 6.36 84.556 18.191 123.717l-0.785-3.025c3.52 11.283 6.112 24.471 7.266 38.067l0.048 0.698-2.194 4.389c-0.917 1.053-1.873 2.009-2.891 2.896l-0.035 0.030h-3.657l-9.509 2.194c-29.83 0.73-64.969 1.146-100.206 1.146-35.234 0-70.37-0.416-105.405-1.243l5.199 0.097z" />
<glyph unicode="&#xe912;" glyph-name="arrow-down" horiz-adv-x="585" d="M243.566 877.714c-13.456-0.205-24.284-11.161-24.284-24.646 0-0.078 0-0.156 0.001-0.234v0.012l0.146-633.417h-109.714c-27.209-6.583-20.846-25.307-0.585-45.641l166.034-166.034c9.509-9.509 25.015-9.509 34.523 0l166.619 166.766c22.382 22.235 24.283 38.181-0.878 44.91h-109.714l-0.146 633.417c0.001 0.066 0.001 0.144 0.001 0.222 0 13.485-10.829 24.441-24.265 24.646h-0.019z" />
<glyph unicode="&#xe913;" glyph-name="arrow-up" horiz-adv-x="585" d="M243.566 0c-13.456 0.205-24.284 11.161-24.284 24.646 0 0.078 0 0.156 0.001 0.234v-0.012l0.146 633.417h-109.714c-27.209 6.583-20.846 25.307-0.585 45.641l166.034 166.034c9.509 9.509 25.015 9.509 34.523 0l166.619-166.766c22.382-22.235 24.283-38.181-0.878-44.91h-109.714l-0.146-633.417c0.001-0.066 0.001-0.144 0.001-0.222 0-13.485-10.829-24.441-24.265-24.646h-0.019z" />
<glyph unicode="&#xe914;" glyph-name="ca-badge" horiz-adv-x="1170" d="M146.286 877.714c-81.042 0-146.286-65.243-146.286-146.286v-585.143c0-81.042 65.243-146.286 146.286-146.286h877.714c81.042 0 146.286 65.243 146.286 146.286v585.143c0 81.042-65.243 146.286-146.286 146.286h-877.714zM382.537 668.964c51.2 0 93.111-11.995 125.879-35.84 33.28-23.845 53.029-56.686 59.465-98.377l-6.437-6.437h-76.727l-6.29 6.437c-12.8 38.327-44.69 57.563-95.817 57.563-43.081 0-75.337-13.897-96.549-41.618-20.919-27.648-31.378-64.951-31.378-111.835 0-46.811 10.459-84.114 31.305-111.909 21.285-27.648 53.541-41.545 96.549-41.545 51.566 0 83.529 21.431 95.89 64l6.29 6.29h76.727l6.437-6.29c-6.437-44.325-26.039-78.848-58.88-103.57s-74.898-37.083-126.464-37.083c-68.535 0-122.075 21.065-160.402 63.269-37.888 42.13-57.051 97.792-57.051 166.839s19.163 124.709 57.051 166.839c38.327 42.203 91.867 63.269 160.402 63.269zM768.585 662.601h83.163l6.363-6.437 147.017-370.761v-63.854l-6.437-6.437h-57.563l-6.437 6.437-31.817 83.017-12.873 6.437h-159.744l-12.8-6.437-31.89-83.017-6.437-6.437h-57.563l-6.437 6.51v63.854l147.017 370.761 6.437 6.437zM806.985 547.547l-57.563-153.381 6.437-6.437h108.544l6.437 6.437-57.563 153.381h-6.29z" />
<glyph unicode="&#xe915;" glyph-name="calendar-cross" d="M274.286 950.857c-50.615 0-91.429-40.741-91.429-91.429v-54.857h-73.143c-40.521 0-73.143-32.622-73.143-73.143v-731.429c0-40.521 32.622-73.143 73.143-73.143h349.696c-18.767 19.651-32.252 44.499-38.082 72.168l-0.172 0.974h-110.299v164.571h175.689l18.286 18.139-18.578 18.432h-175.397v182.857h115.712c4.389 12.873 10.386 25.161 18.286 36.571h-133.998v164.571h182.857v-111.909l16.018 16.091c6.363 6.363 13.312 11.703 20.553 16.677v79.141h182.857v-86.309c3.95-3.145 8.046-5.851 11.703-9.509l0.146-0.219 24.722-24.869v120.905h164.571v-52.443c25.161 0.731 50.322-4.901 73.143-16.238v214.967c0 40.521-32.622 73.143-73.143 73.143h-73.143v54.857c0 50.688-40.741 91.429-91.429 91.429h-36.571c-50.688 0-91.429-40.741-91.429-91.429v-54.857h-219.429v54.857c0 50.688-40.814 91.429-91.429 91.429h-36.571zM274.286 877.714h36.571c10.099 0 18.286-8.187 18.286-18.286v0-164.425c0-10.099-8.187-18.286-18.286-18.286v0h-36.571c-10.099 0-18.286 8.187-18.286 18.286v0 164.425c0 10.099 8.187 18.286 18.286 18.286v0zM713.143 877.714h36.571c10.099 0 18.286-8.187 18.286-18.286v0-164.425c0-10.099-8.187-18.286-18.286-18.286v0h-36.571c-10.099 0-18.286 8.187-18.286 18.286v0 164.425c0 10.099 8.187 18.286 18.286 18.286v0zM109.714 585.143h164.571v-164.571h-164.571v164.571zM109.714 384h164.571v-182.857h-164.571v182.857zM109.714 164.571h164.571v-164.571h-164.571v164.571zM948.663 411.648c-7.676 7.672-18.278 12.416-29.989 12.416s-22.312-4.745-29.989-12.417v0l-120.686-121.417-120.686 121.417c-7.676 7.672-18.278 12.416-29.989 12.416s-22.312-4.745-29.989-12.417l-48.274-48.274c-7.672-7.676-12.416-18.278-12.416-29.989s4.745-22.312 12.417-29.989v0l121.417-120.686-121.417-120.686c-7.672-7.676-12.416-18.278-12.416-29.989s4.745-22.312 12.417-29.989l48.274-48.274c7.825-7.337 18.38-11.844 29.989-11.844s22.164 4.507 30.012 11.867l-0.024-0.022 120.686 121.417 120.686-121.417c16.823-16.091 43.886-16.091 59.977 0l48.274 48.274c7.672 7.676 12.416 18.278 12.416 29.989s-4.745 22.312-12.417 29.989v0l-121.417 120.686 121.417 120.686c7.672 7.676 12.416 18.278 12.416 29.989s-4.745 22.312-12.417 29.989v0z" />
<glyph unicode="&#xe916;" glyph-name="coin-eur-inv" d="M512 947.2c-280.666-0.208-508.135-227.677-508.343-508.323v-0.020c0.208-280.666 227.677-508.135 508.323-508.343h0.020c280.666 0.208 508.135 227.677 508.343 508.323v0.020c-0.208 280.666-227.677 508.135-508.323 508.343h-0.020zM512 881.737c0.152 0 0.332 0 0.512 0 244.313 0 442.368-198.055 442.368-442.368 0-0.18 0-0.36 0-0.54v0.028c0-0.152 0-0.332 0-0.512 0-244.313-198.055-442.368-442.368-442.368-0.18 0-0.36 0-0.54 0h0.028c-0.152 0-0.332 0-0.512 0-244.313 0-442.368 198.055-442.368 442.368 0 0.18 0 0.36 0 0.54v-0.028c0 0.152 0 0.332 0 0.512 0 244.313 198.055 442.368 442.368 442.368 0.18 0 0.36 0 0.54 0h-0.028zM551.936 714.386c49.006 0 92.745-10.679 131.365-32.329l-30.866-68.535c-37.742 18.578-71.095 27.941-100.498 27.941-34.45 0-62.683-10.386-84.699-30.939-21.723-20.626-36.352-57.637-43.666-99.255h167.278v-56.466h-172.763l-0.805-27.063v-14.043l0.366 4.023 0.439 4.023h131.657v-56.027h-125.513c15.579-76.288 60.123-126.391 133.559-126.391 34.889 0 70.802 7.607 107.374 22.674v-74.386c-32.037-14.921-69.339-22.309-111.909-22.309-58.953 0-106.789 16.238-143.653 48.494-36.571 32.183-60.782 90.77-72.046 151.918h-46.665v56.174h40.814l-0.731-8.923v13.678l0.731 28.16h-40.96v56.539h46.080c9.143 61.294 32.622 115.566 69.998 150.455 37.449 34.962 85.87 52.59 144.969 52.59z" />
<glyph unicode="&#xe917;" glyph-name="coin-czk-inv" d="M622.958 661.577h43.154c25.088-16.311 30.427-23.918 46.226-40.814 17.554 18.139 23.259 25.673 47.031 40.814h50.469v-7.314c-22.162-25.454-50.469-42.13-61.879-72.85h-70.729c-11.849 19.017-19.822 37.157-54.272 72.777zM719.872 532.919c31.89 0 60.343-5.998 85.797-17.701l-19.31-51.419c-27.063 10.533-49.445 15.653-67.072 15.653-52.005 0-78.117-34.377-78.117-103.57 0-33.792 6.583-59.246 19.529-76.361 12.946-16.969 32.037-25.307 57.051-25.307 28.526 0 55.515 7.095 80.823 21.211v-55.735c-10.575-6.329-22.842-11.301-35.876-14.249l-0.842-0.16c-12.873-2.926-28.599-4.462-47.104-4.462-45.568 0-80.238 13.312-104.009 39.79-23.698 26.77-35.401 64.951-35.401 114.688 0 50.761 12.434 89.6 37.083 116.809 24.869 27.282 60.709 40.814 107.52 40.814zM512 947.2c-280.666-0.208-508.135-227.677-508.343-508.323v-0.020c0.208-280.666 227.677-508.135 508.323-508.343h0.020c280.666 0.208 508.135 227.677 508.343 508.323v0.020c-0.208 280.666-227.677 508.135-508.323 508.343h-0.020zM512 881.737c0.152 0 0.332 0 0.512 0 244.313 0 442.368-198.055 442.368-442.368 0-0.18 0-0.36 0-0.54v0.028c0-0.152 0-0.332 0-0.512 0-244.313-198.055-442.368-442.368-442.368-0.18 0-0.36 0-0.54 0h0.028c-0.152 0-0.332 0-0.512 0-244.313 0-442.368 198.055-442.368 442.368 0 0.18 0 0.36 0 0.54v-0.028c0 0.152 0 0.332 0 0.512 0 244.313 198.055 442.368 442.368 442.368 0.18 0 0.36 0 0.54 0h-0.028zM225.134 651.63h62.61v-203.045c18.578 23.333 41.618 45.495 59.831 66.999l111.25 136.046h76.8c-101.248-123.69-151.94-184.351-202.816-244.852l47.826 58.411 159.159-238.885h-78.19l-129.39 192.658-44.471-33.499v-159.159h-62.61z" />
</font>
</defs>
</svg>
