<?xml version="1.0" encoding="UTF-8" standalone="no"?>
<svg xmlns="http://www.w3.org/2000/svg" version="1.1" height="14" width="14">
    <path d="M3.75 0C3.058 0 2.5.557 2.5 1.25V2h-1c-.554 0-1 .446-1 1v10c0 .554.446 1 1 1h4.781a2.043 2.043 0 01-.523-1H4.25v-2.25h2.402l.25-.248-.254-.252H4.25v-2.5h1.582c.06-.176.142-.344.25-.5H4.25V5h2.5v1.53l.219-.22c.087-.087.182-.16.281-.228V5h2.5v1.18c.054.043.11.08.16.13l.002.003.338.34V5h2.25v.717c.344-.01.688.067 1 .222V3c0-.554-.446-1-1-1h-1v-.75C11.5.557 10.943 0 10.25 0h-.5C9.057 0 8.5.557 8.5 1.25V2h-3v-.75C5.5.557 4.942 0 4.25 0h-.5zm0 1h.5a.25.25 0 01.25.25v2.248a.25.25 0 01-.25.25h-.5a.25.25 0 01-.25-.25V1.25A.25.25 0 013.75 1zm6 0h.5a.25.25 0 01.25.25v2.248a.25.25 0 01-.25.25h-.5a.25.25 0 01-.25-.25V1.25A.25.25 0 019.75 1zM1.5 5h2.25v2.25H1.5V5zm0 2.75h2.25v2.5H1.5v-2.5zm0 3h2.25V13H1.5v-2.25z"/>
    <path d="M12.97 7.372a.58.58 0 00-.82 0l-1.65 1.66-1.65-1.66a.58.58 0 00-.82 0l-.66.66a.58.58 0 000 .82l1.66 1.65-1.66 1.65a.58.58 0 000 .82l.66.66a.6.6 0 00.82 0l1.65-1.66 1.65 1.66c.23.22.6.22.82 0l.66-.66a.58.58 0 000-.82l-1.66-1.65 1.66-1.65a.58.58 0 000-.82z"/>
</svg>