<?xml version="1.0" encoding="UTF-8" standalone="no"?>
<svg xmlns="http://www.w3.org/2000/svg" version="1.1" width="14" height="14">
  <path d="M7 .594a6.406 6.406 0 1 0 0 12.812A6.406 6.406 0 0 0 7 .594zm1.156 4.113h.434c.252.164.456.332.615.502.177-.182.384-.35.623-.502h.436v.074c-.23.24-.392.414-.487.528a2.417 2.417 0 0 0-.214.296h-.711c-.119-.191-.35-.466-.696-.824zM4.373 5h.654v1.91c.18-.219.357-.428.534-.63L6.64 5h.744c-.7.821-1.2 1.405-1.502 1.754l1.543 2.248h-.758L5.412 7.189l-.385.315v1.498h-.654zm4.908.92c.32 0 .606.06.862.178l-.194.517c-.272-.106-.497-.158-.674-.158-.523 0-.785.346-.785 1.041 0 .34.066.596.196.768.13.17.322.254.574.254.286 0 .557-.071.812-.213v.56a1.265 1.265 0 0 1-.369.145c-.13.029-.288.045-.474.045-.458 0-.806-.134-1.045-.4-.238-.269-.356-.653-.356-1.153 0-.51.125-.9.373-1.174.25-.274.61-.41 1.08-.41z"/>
</svg>
