<?xml version="1.0" encoding="UTF-8" standalone="no"?>
<svg xmlns="http://www.w3.org/2000/svg" version="1.1" width="14" height="14">
  <path d="M7 .594a6.406 6.406 0 1 0 0 12.812A6.406 6.406 0 0 0 7 .594zm.314 3.552c.505 0 .956.11 1.354.333l-.318.707c-.389-.192-.733-.288-1.036-.288-.355 0-.646.107-.873.319-.224.212-.375.501-.45.93h1.724v.582H5.934l-.008.17v.238l.008.18h1.543v.578H5.998c.161.786.62 1.148 1.377 1.148.36 0 .73-.078 1.107-.234v.767c-.33.154-.715.23-1.154.23-.607 0-1.1-.167-1.48-.5-.378-.332-.627-.781-.743-1.411h-.574v-.579h.514l-.008-.171v-.141l.008-.275H4.53v-.583h.567c.095-.632.337-1.098.722-1.458.386-.36.885-.542 1.494-.542z"/>
</svg>
