<?xml version="1.0" encoding="UTF-8" standalone="no"?>
<svg xmlns="http://www.w3.org/2000/svg" version="1.1" height="14" width="14">
    <path d="M8.517 3.955h.59c.343.223.416.327.632.558.24-.248.318-.351.643-.558h.69v.1c-.303.348-.69.576-.846.996h-.967c-.162-.26-.271-.508-.742-.995zm1.325 1.759c.436 0 .825.082 1.173.242l-.264.703c-.37-.144-.676-.214-.917-.214-.711 0-1.068.47-1.068 1.416 0 .462.09.81.267 1.044.177.232.438.346.78.346.39 0 .759-.097 1.105-.29v.762a1.72 1.72 0 01-.502.197c-.176.04-.391.061-.644.061-.623 0-1.097-.182-1.422-.544-.324-.366-.484-.888-.484-1.568 0-.694.17-1.225.507-1.597.34-.373.83-.558 1.47-.558z"/>
    <path d="M7 .05A6.955 6.955 0 00.05 7 6.955 6.955 0 007 13.95 6.955 6.955 0 0013.95 7 6.955 6.955 0 007 .05zm0 .895A6.048 6.048 0 0113.055 7 6.048 6.048 0 017 13.055 6.048 6.048 0 01.945 7 6.048 6.048 0 017 .945z" color="#000" font-weight="400" font-family="sans-serif" overflow="visible"/>
    <path d="M3.078 4.091h.856v2.776c.254-.319.569-.622.818-.916l1.521-1.86h1.05A523.579 523.579 0 015.204 6.64L7.38 9.906H6.311L4.542 7.272l-.608.458v2.176h-.856z"/>
</svg>