<?xml version="1.0" encoding="UTF-8" standalone="no"?>
<svg xmlns="http://www.w3.org/2000/svg" version="1.1" height="14" width="14">
    <path d="M7 .05A6.955 6.955 0 00.05 7 6.955 6.955 0 007 13.95 6.955 6.955 0 0013.95 7 6.955 6.955 0 007 .05zm0 .895A6.048 6.048 0 0113.055 7 6.048 6.048 0 017 13.055 6.048 6.048 0 01.945 7 6.048 6.048 0 017 .945z" color="#000" font-weight="400" font-family="sans-serif" overflow="visible"/>
    <path d="M7.546 3.233c.67 0 1.268.146 1.796.442l-.422.937c-.516-.254-.972-.382-1.374-.382-.471 0-.857.142-1.158.423-.297.282-.497.788-.597 1.357h2.287v.772H5.716l-.011.37v.192l.005-.055.006-.055H7.516V8H5.8c.213 1.043.822 1.728 1.826 1.728.477 0 .968-.104 1.468-.31v1.017c-.438.204-.948.305-1.53.305-.806 0-1.46-.222-1.964-.663-.5-.44-.831-1.241-.985-2.077h-.638v-.768h.558l-.005.061-.005.061v-.187l.01-.385h-.56v-.773h.63c.125-.838.446-1.58.957-2.057.512-.478 1.174-.719 1.982-.719z"/>
</svg>