<?xml version="1.0" encoding="UTF-8" standalone="no"?>
<svg
   xmlns:dc="http://purl.org/dc/elements/1.1/"
   xmlns:cc="http://creativecommons.org/ns#"
   xmlns:rdf="http://www.w3.org/1999/02/22-rdf-syntax-ns#"
   xmlns:svg="http://www.w3.org/2000/svg"
   xmlns="http://www.w3.org/2000/svg"
   id="svg6"
   height="14"
   width="14"
   version="1.1">
  <metadata
     id="metadata12">
    <rdf:RDF>
      <cc:Work
         rdf:about="">
        <dc:format>image/svg+xml</dc:format>
        <dc:type
           rdf:resource="http://purl.org/dc/dcmitype/StillImage" />
        <dc:title></dc:title>
      </cc:Work>
    </rdf:RDF>
  </metadata>
  <defs
     id="defs10" />
  <path
     id="path3728"
     d="m 12.536636,3.9989083 c -0.161773,2.245e-4 -0.322784,0.00219 -0.446532,0.00598 -0.06187,0.00189 -0.113973,0.00332 -0.151503,0.00598 -0.01877,0.00134 -0.03426,0.00273 -0.04386,0.00399 0.0023,-7.767e-4 -0.02488,0.021396 -0.04186,0.047843 -0.01734,0.027082 -0.02591,0.063306 -0.02591,0.051829 0,-0.011504 -4.8e-5,2.506e-4 0.002,0.00997 0.002,0.00972 0.0059,0.021974 0.01,0.037875 0.0082,0.031801 0.0193,0.07277 0.03189,0.1136264 0.150364,0.4874076 0.212725,0.9491005 0.199345,1.479138 -0.0076,0.2975226 -0.0286,0.4808362 -0.08571,0.7276082 -0.01686,0.073037 -0.01779,0.05928 0.006,0.1574823 0.153293,0.6334352 0.13811,1.3683713 -0.04386,1.9934473 -0.02305,0.079136 -0.04867,0.1645503 -0.05582,0.1893775 -0.03547,0.1231429 -0.145475,0.3825012 -0.231168,0.554183 -0.115949,0.232319 -0.276417,0.4268632 -0.426597,0.629929 0.4632,-0.3278159 0.95638,-0.754858 1.293747,-1.235937 0.510942,-0.7285878 0.814704,-1.5158288 0.940907,-2.4698812 0.06044,-0.4568776 0.03741,-1.0745564 0,-1.3535507 C 13.422739,4.6124864 13.379775,4.3817856 13.33215,4.234144 13.28453,4.0865027 13.23762,4.0320482 13.19261,4.0128713 c 0.01488,0.00635 0.0045,0.00129 -0.006,0 -0.01044,-0.00129 -0.02649,-0.0027 -0.04585,-0.00399 -0.03872,-0.00257 -0.09287,-0.00426 -0.155488,-0.00598 -0.12524,-0.00345 -0.286755,-0.00421 -0.448526,-0.00399 z m -10.1645882,0.00199 c -1.0879512,-1e-7 -1.59663356,-0.00147 -1.83995197,0.00797 -0.1216592,0.00472 -0.17719382,0.013647 -0.19535783,0.019934 -0.018164,0.00629 -0.0100544,0.00795 -0.0418624,0.035882 -0.0415102,0.036455 -0.0512952,0.044287 -0.05781,0.067777 -0.006515,0.023489 -0.007,0.076754 -0.001993,0.1774168 0.075128,1.5106271 0.56527876,2.8269224 1.540935,4.126436 0.3162092,0.4211788 0.8201074,0.9069313 1.369498,1.3196686 0.9417493,0.7075013 2.0349413,1.1632073 3.1875223,1.3296293 0.3127002,0.04516 0.4662279,0.059 0.8133265,0.06778 0.4972606,0.01258 0.7902985,-0.0013 1.2578652,-0.0598 0.489963,-0.06132 0.7964894,-0.15285 1.2040422,-0.356827 C 10.473412,10.303761 11.112018,9.6012044 11.384423,8.7871687 11.568315,8.2376666 11.629972,7.6316674 11.557853,7.094732 11.448525,6.280783 11.131294,5.6185317 10.585051,5.0554354 10.318122,4.7802726 10.04378,4.5813681 9.676039,4.3975977 9.2437288,4.1815626 8.8850397,4.076325 8.4121932,4.0268166 8.233259,4.0080806 7.7889229,4.0187425 7.6088339,4.046751 6.8618381,4.1629283 6.1986328,4.5165788 5.6233604,5.1092584 5.2399333,5.5042884 4.9674558,5.9477417 4.8359487,6.3870582 l -0.029902,0.1036592 0.017941,0.075751 C 4.8834798,6.7974086 5.0526744,7.1748327 5.2147037,7.433618 5.5603582,7.9856811 6.025982,8.3831198 6.5184182,8.6336732 6.2880563,8.2687122 6.1163395,7.867157 6.1416567,7.4435852 6.1749862,6.8859395 6.3826621,6.4202485 6.7656057,6.0541525 7.17853,5.6593945 7.6299812,5.4885669 8.2088615,5.5099414 c 0.302459,0.011167 0.5069948,0.060331 0.739569,0.1754233 0.6015976,0.2977079 1.0161725,0.8337737 1.1462315,1.4831248 0.03765,0.1879701 0.03734,0.5602632 0,0.7535231 C 10.016373,8.3272851 9.850483,8.6521217 9.5803533,8.9346838 9.2857524,9.2428407 8.9470676,9.4250348 8.4759835,9.5267376 8.2611807,9.5731177 7.8122461,9.5739206 7.5709584,9.532718 6.8575612,9.4108928 6.111858,9.0688302 5.6074128,8.6296864 4.9659669,8.0712783 4.5312082,7.3673876 4.3296131,6.564475 4.1573371,5.8783394 4.1651059,5.0476192 4.3555279,4.4574012 c 0.043541,-0.1349494 0.071873,-0.249581 0.075751,-0.2970236 0.00383,-0.046896 0.00283,-0.066014 0.00199,-0.06977 -8.338e-4,-0.00376 -0.00381,-0.0084 -0.023921,-0.035882 -0.00841,-0.011489 -0.019541,-0.026288 -0.029902,-0.035882 -0.00662,-0.00613 -0.00614,-0.00456 -0.00797,-0.00598 -0.00567,-3.368e-4 -0.011609,-0.00161 -0.021928,-0.00199 -0.024363,-8.88e-4 -0.061058,-0.00118 -0.1076461,-0.00199 -0.093177,-0.00162 -0.2289233,-0.00286 -0.4026764,-0.00399 -0.3475064,-0.00228 -0.8471598,-0.00399 -1.4671772,-0.00399 z"
     style="fill:#000000;stroke-width:0.0137097" />
</svg>
