<?xml version="1.0" encoding="UTF-8" standalone="no"?>
<svg xmlns="http://www.w3.org/2000/svg" version="1.1" width="14" height="14">
  <path d="M12.54 4h-.45l-.15.01h-.05l-.04.05-.02.05v.05l.04.12a4.45 4.45 0 0 1 .11 2.2c-.01.08-.01.06.01.16.15.63.14 1.37-.04 2l-.06.18c-.03.13-.14.39-.23.56-.12.23-.28.42-.43.63.47-.33.96-.76 1.3-1.24a5.37 5.37 0 0 0 .94-3.82 4.51 4.51 0 0 0-.14-.72c-.05-.14-.1-.2-.14-.22.02 0 0 0 0 0a4.5 4.5 0 0 0-.65-.01zM2.37 4H.53a.9.9 0 0 0-.2.03l-.04.03c-.04.04-.05.05-.05.07v.18a7.22 7.22 0 0 0 6.1 6.78 7.31 7.31 0 0 0 2.07 0c.48-.06.8-.15 1.2-.35a3.46 3.46 0 0 0 1.95-3.65A3.48 3.48 0 0 0 7.6 4.05c-.75.11-1.41.47-1.99 1.06-.38.4-.65.84-.78 1.28l-.03.1.01.08c.06.23.23.6.4.86.34.56.8.95 1.3 1.2-.23-.36-.4-.76-.38-1.19.03-.55.24-1.02.63-1.39.4-.4.86-.56 1.44-.54.3.01.5.06.74.18.6.3 1.01.83 1.14 1.48.04.19.04.56 0 .75-.07.4-.24.73-.51 1.01-.3.31-.63.5-1.1.6-.22.04-.67.04-.9 0a4 4 0 0 1-3.22-5.08 1.77 1.77 0 0 0 .07-.36l-.02-.04a.27.27 0 0 0-.03-.03h-.03L4.25 4a41.01 41.01 0 0 0-1.88 0z"/>
</svg>
