<?xml version="1.0" encoding="UTF-8" standalone="no"?>
<svg xmlns="http://www.w3.org/2000/svg" version="1.1" width="14" height="14">
  <path d="M6.5.61C3.46.61 1 1.44 1 2.46c0 .17.07.34.21.5L5 6.76v3.6c0 .82.62 1.45 1 1.79.4.34 1.61 1.02 1.9.73.1-.08.1-.16.1-.28V12a1 1 0 0 1-.7-.3l-1-1a1 1 0 0 1 0-1.4l.79-.8-.8-.8a1 1 0 0 1 0-1.4l1-1a1 1 0 0 1 1.42 0l.37.37 2.6-2.59c.24-.25.32-.39.32-.62C12 1.44 9.54.6 6.5.6zm0 .8c2.44 0 4.41.48 4.41 1.09 0 .61-1.97 1.1-4.41 1.1-2.44 0-4.41-.49-4.41-1.1 0-.61 1.97-1.09 4.41-1.09zM8 6L7 7l1.5 1.5L7 10l1 1 1.5-1.5L11 11l1-1-1.5-1.5L12 7l-1-1-1.5 1.5z"/>
</svg>