<?xml version="1.0" encoding="UTF-8" standalone="no"?>
<svg xmlns="http://www.w3.org/2000/svg" version="1.1" width="14" height="14">
    <path d="M7 0a5.504 5.504 0 00-5.5 5.5 5.498 5.498 0 005.25 5.486v1.047A1 1 0 006 13a1 1 0 001 1 1 1 0 001-1 1 1 0 00-.75-.967v-1.047A5.498 5.498 0 0012.5 5.5C12.5 2.465 10.035 0 7 0zm-.238.523v2.108H4.869c.098-.265.205-.513.326-.736.432-.798.986-1.265 1.567-1.372zm.476 0c.581.107 1.135.574 1.567 1.372.12.223.228.47.326.736H7.238V.523zM5.506.705a4.029 4.029 0 00-.73.961c-.158.29-.29.62-.409.965H2.885A5.016 5.016 0 015.505.705zm2.988 0a5.016 5.016 0 012.621 1.926H9.633a6.353 6.353 0 00-.408-.965 4.029 4.029 0 00-.73-.96zM2.607 3.11H4.23a9.127 9.127 0 00-.303 2.153H1.992c.037-.781.263-1.505.615-2.153zm2.12 0h2.035v2.153h-2.36c.02-.781.138-1.506.325-2.153zm2.511 0h2.035c.187.647.305 1.372.325 2.153h-2.36V3.109zm2.533 0h1.622c.352.648.578 1.372.615 2.153h-1.934a9.128 9.128 0 00-.303-2.153zM1.992 5.74h1.934c.018.77.125 1.494.303 2.152H2.607a4.966 4.966 0 01-.615-2.153zm2.41 0h2.36V7.89H4.727a8.579 8.579 0 01-.325-2.153zm2.836 0h2.36a8.579 8.579 0 01-.325 2.152H7.238V5.738zm2.836 0h1.934a4.967 4.967 0 01-.615 2.152H9.77a9.127 9.127 0 00.303-2.153zm-7.19 2.63h1.483c.118.345.251.674.408.965.208.383.46.694.73.96a5.016 5.016 0 01-2.62-1.925zm1.985 0h1.893v2.108c-.581-.107-1.135-.574-1.567-1.372a5.626 5.626 0 01-.326-.736zm2.37 0H9.13a5.626 5.626 0 01-.326.736c-.432.798-.986 1.265-1.567 1.372V8.369zm2.394 0h1.482a5.016 5.016 0 01-2.62 1.926c.27-.267.522-.578.73-.961.157-.29.29-.62.408-.965zM1.5 12.57v.86h4.256a1.318 1.318 0 01-.074-.43 1.318 1.318 0 01.074-.43H1.5zm6.744 0a1.318 1.318 0 01.074.43 1.318 1.318 0 01-.074.43H12.5v-.86H8.244z"/>
</svg>
