<?xml version="1.0" encoding="UTF-8" standalone="no"?>
<svg xmlns="http://www.w3.org/2000/svg" version="1.1" width="14" height="14">
    <path d="M6.5 0A5.5 5.5 0 001 5.5a5.5 5.5 0 005 5.47v.5a1.14 1.14 0 00-.64 1.03 1.14 1.14 0 001.14 1.14 1.14 1.14 0 001.14-1.14A1.14 1.14 0 007 11.48v-.5a5.5 5.5 0 005-5.48A5.5 5.5 0 006.5 0zM6 1.15V2.5h-.99A2 4.5 0 016 1.15zm1 0a2 4.5 0 01.99 1.35H7zm-2.55.35a3 5.5 0 00-.46 1h-.84a4.5 4.5 0 011.3-1zm4.1 0a4.5 4.5 0 011.3 1H9a3 5.5 0 00-.45-1zm-6.08 2h1.24A3 5.5 0 003.5 5H2.04a4.5 4.5 0 01.44-1.5zm2.24 0H6V5H4.51a2 4.5 0 01.2-1.5zM7 3.5h1.3A2 4.5 0 018.47 5H7zm2.3 0h1.23a4.5 4.5 0 01.44 1.5H9.49a3 5.5 0 00-.2-1.5zM2.02 6h1.48a3 5.5 0 00.2 1.5H2.47A4.5 4.5 0 012.03 6zm2.49 0H6v1.5H4.7A2 4.5 0 014.53 6zM7 6h1.49a2 4.5 0 01-.2 1.5H7zm2.48 0h1.49a4.5 4.5 0 01-.44 1.5H9.29A3 5.5 0 009.5 6zM3.15 8.5H4a3 5.5 0 00.45 1 4.5 4.5 0 01-1.29-1zm1.86 0H6v1.35a2 4.5 0 01-.99-1.35zM7 8.5h.99A2 4.5 0 017 9.85zm2.01 0h.84a4.5 4.5 0 01-1.3 1 3 5.5 0 00.46-1zM1 12v1.07h4.12A1.5 1.5 0 015 12.5a1.5 1.5 0 01.09-.5zm6.91 0a1.5 1.5 0 01.09.5 1.5 1.5 0 01-.12.57H12V12z"/>
</svg>
