<?xml version="1.0" encoding="UTF-8" standalone="no"?>
<svg xmlns="http://www.w3.org/2000/svg" version="1.1" width="14" height="14">
    <path d="M7.85 1.22v.75l.23.12c1.03.7 2.23.5 3.18.55.32.01.56.29.64.61.04.16.03.32 0 .42-.05.1-.1.16-.23.2-.52.15-.87.59-.93 1.07-.06.47.24 1 .82 1.2.17.05.2.1.22.12.01.03.02.09.01.21-.02.25-.16.7.06 1.18.18.38.46.65.7.9.23.26.41.48.48.74.03.1.07.34.04.6a1.1 1.1 0 01-.34.72c-.18.16-.63.3-1.13.32-.5.03-1.03-.02-1.35-.08-.2-.05-.4-.01-.57.07-.16.09-.28.2-.39.34-.2.26-.38.56-.58.85-.2.29-.41.55-.7.72-.27.18-.6.28-1.1.22-1.46-.15-1.87-.99-2.35-1.56-.19-.22-.4-.36-.59-.4-.2-.06-.34-.05-.43-.06a6.78 6.78 0 01-1.74-.45c-.2-.08-.47-.26-.64-.47-.17-.2-.25-.41-.16-.7.12-.34.43-.48.86-.67.22-.1.45-.2.67-.35.17-.12.31-.31.4-.54h-.86c-.13.08-.29.16-.49.25-.43.19-1.02.44-1.24 1.1-.17.52 0 1.01.27 1.35.27.34.63.56.93.68.44.17 1.18.43 1.93.5.16.02.26.01.32.03.06.01.11.03.23.18.38.46 1.08 1.62 2.81 1.81a2.4 2.4 0 001.56-.32c.4-.25.68-.6.9-.92.22-.32.4-.63.54-.8a.68.68 0 01.18-.17c.04-.02.05-.02.1-.01.4.08.96.14 1.53.1.57-.03 1.15-.14 1.56-.5.37-.34.52-.78.57-1.16.04-.37-.01-.68-.06-.86-.12-.44-.4-.76-.65-1.03s-.47-.5-.57-.72c-.1-.22-.03-.47 0-.82.01-.18.02-.4-.1-.6a1.04 1.04 0 00-.6-.47c-.33-.1-.38-.26-.35-.45a.6.6 0 01.43-.48c.33-.1.57-.34.67-.61.11-.28.11-.58.04-.85-.14-.56-.6-1.1-1.29-1.14-1.05-.05-2.06.08-2.82-.43-.2-.13-.41-.22-.62-.3z"/>
    <path d="M7 7H1.7c-.4-.7-.5-1.7-.2-2.4l1-1.2c.3-.5.3-1 .7-1.4l.8-.7c.3-.3.4-1 .9-1.1.5 0 .6.4 2.1.4z"/>
</svg>