<?xml version="1.0" encoding="UTF-8" standalone="no"?>
<svg xmlns="http://www.w3.org/2000/svg" version="1.1" width="14" height="14">
    <path d="M7.85 1.17v.9c.07.02.15.03.2.06 1.05.7 2.26.51 3.2.56.3.01.53.27.6.57.04.15.03.3 0 .39-.04.09-.08.13-.2.17-.54.16-.9.61-.96 1.11-.06.5.26 1.05.85 1.25.17.06.19.1.2.1v.19c-.02.24-.16.7.07 1.2.18.4.47.67.7.92.23.25.41.47.48.72.02.08.06.33.03.58-.03.25-.11.5-.33.68-.16.15-.6.28-1.1.31-.49.03-1.02-.02-1.33-.09a.92.92 0 00-.6.1c-.17.08-.3.2-.4.34-.22.26-.39.57-.59.85-.2.29-.41.54-.68.71-.27.17-.59.27-1.08.21-1.44-.15-1.83-.96-2.31-1.54-.2-.23-.41-.37-.62-.43-.13-.03-.27-.03-.44-.05a6.75 6.75 0 01-1.72-.45 1.7 1.7 0 01-.63-.45c-.16-.2-.23-.38-.14-.65.1-.32.4-.46.83-.64.22-.1.45-.2.68-.36.18-.13.33-.34.43-.58H1.96l-.4.2C1.12 8.24.52 8.5.3 9.18c-.18.54 0 1.06.28 1.4.28.35.64.57.95.7.45.17 1.18.42 1.94.5.3.03.4.05.52.19.38.45 1.1 1.64 2.85 1.83.64.07 1.17-.08 1.58-.33.41-.26.7-.6.92-.93l.54-.8c.08-.1.14-.18.23-.16.4.08.97.14 1.55.1.57-.04 1.16-.13 1.58-.51.39-.35.54-.8.59-1.2.04-.37-.01-.69-.06-.87-.13-.46-.41-.79-.66-1.06-.25-.27-.47-.5-.56-.7-.1-.2-.03-.44 0-.8.02-.18.02-.4-.1-.63a1.1 1.1 0 00-.64-.49c-.3-.1-.33-.23-.32-.4a.55.55 0 01.4-.43c.34-.1.6-.36.71-.65.12-.28.11-.59.04-.88-.15-.57-.62-1.13-1.33-1.17-1.06-.05-2.06.08-2.8-.42-.21-.14-.43-.23-.65-.3zM2.51 3.9c-.1.08-.2.17-.27.27l-.08.15.35-.42z"/>
    <path d="M7 7H1.7c-.4-.7-.5-1.7-.2-2.4l1-1.2c.3-.5.3-1 .7-1.4l.8-.7c.3-.3.4-1 .9-1.1.5 0 .6.4 2.1.4z"/>
</svg>
