<?xml version="1.0" encoding="UTF-8" standalone="no"?>
<svg xmlns="http://www.w3.org/2000/svg" version="1.1" width="14" height="14">
  <path d="M2.002 0C1.5 0 1 .5 1.002 1v3.17c.314-.252.65-.486 1-.7V1l10.008.107-.002 2.39c.348.213.678.447.992.7V1c0-.5-.5-1-1.063-1H2.002zm4.947 3.064c-.996.002-1.509.076-2.406.35C2.786 3.951 1.127 5.11.221 6.436c-.328.478-.294.735.168 1.337 1.21 1.577 3.317 2.788 5.334 3.063.275.038.556.077.625.088.242.038 1.483-.017 1.953-.088 2.088-.315 4.179-1.535 5.367-3.133.457-.614.448-.83-.059-1.49-.802-1.045-2.018-1.955-3.355-2.51-1.139-.472-2.009-.64-3.305-.639zm.037.973c.264.017.381.12.381.324 0 .2-.145.293-.523.34-.798.1-1.353.586-1.45 1.272-.021.154-.075.315-.12.359-.174.168-.493.125-.612-.084-.116-.204.053-.875.309-1.23.352-.49 1.073-.9 1.703-.97.121-.012.225-.016.312-.01zm-3.054.557c.01.01-.025.092-.078.185-.418.721-.459 1.742-.098 2.5.365.77 1.22 1.48 2.086 1.735 1.352.398 2.74.091 3.71-.82.983-.923 1.225-2.324.593-3.415-.054-.093-.088-.175-.077-.185.033-.029.866.443 1.215.687.435.304 1.154.979 1.47 1.381l.263.332-.24.297a7.534 7.534 0 0 1-4.825 2.715 7.602 7.602 0 0 1-2.812-.174C3.677 9.457 2.21 8.507 1.223 7.291l-.24-.297.263-.332c.317-.402 1.034-1.077 1.469-1.38.35-.245 1.184-.717 1.217-.688zm9.07 5.209a9.362 9.362 0 0 1-.998.709L12.002 13h-10v-2.488a9.427 9.427 0 0 1-1-.707V13c-.002.5.498 1 1 1h10c.498 0 .998-.5 1-1V9.803z"/>
</svg>
