<?xml version="1.0" encoding="UTF-8" standalone="no"?>
<svg xmlns="http://www.w3.org/2000/svg" width="14" height="14">
  <path d="M7.332 0A.33.33 0 0 0 7 .332v1.336A.33.33 0 0 0 7.332 2h1.836a.33.33 0 0 0 .332-.332V.332A.33.33 0 0 0 9.168 0H7.332zm0 4A.33.33 0 0 0 7 4.332v1.336A.33.33 0 0 0 7.332 6h3.336A.33.33 0 0 0 11 5.668V4.332A.33.33 0 0 0 10.668 4H7.332zm0 4A.33.33 0 0 0 7 8.332v1.336a.33.33 0 0 0 .332.332h4.836a.33.33 0 0 0 .332-.332V8.332A.33.33 0 0 0 12.168 8H7.332zm0 4a.33.33 0 0 0-.332.332v1.336a.33.33 0 0 0 .332.332h6.336a.33.33 0 0 0 .332-.332v-1.336a.33.33 0 0 0-.332-.332H7.332zM2.332 13.985A.33.33 0 0 1 2 13.653V2.985H.5c-.372-.09-.283-.338-.006-.616L2.764.098c.13-.13.342-.13.472 0l2.278 2.28c.306.305.33.515-.014.607H4v10.668a.33.33 0 0 1-.332.332z"/>
</svg>
