<?xml version="1.0" encoding="UTF-8" standalone="no"?>
<svg xmlns="http://www.w3.org/2000/svg" width="14" height="14">
  <path d="M7.332 14A.33.33 0 0 1 7 13.668v-1.336A.33.33 0 0 1 7.332 12h1.836a.33.33 0 0 1 .332.332v1.336a.33.33 0 0 1-.332.332zm0-4A.33.33 0 0 1 7 9.668V8.332A.33.33 0 0 1 7.332 8h3.336a.33.33 0 0 1 .332.332v1.336a.33.33 0 0 1-.332.332zm0-4A.33.33 0 0 1 7 5.668V4.332A.33.33 0 0 1 7.332 4h4.836a.33.33 0 0 1 .332.332v1.336a.33.33 0 0 1-.332.332zm0-4A.33.33 0 0 1 7 1.668V.332A.33.33 0 0 1 7.332 0h6.336A.33.33 0 0 1 14 .332v1.336a.33.33 0 0 1-.332.332zM2.332.015A.33.33 0 0 0 2 .347v10.668H.5c-.372.09-.283.338-.006.616l2.27 2.271c.13.13.342.13.472 0l2.278-2.28c.306-.305.33-.515-.014-.607H4V.347a.33.33 0 0 0-.332-.332z"/>
</svg>
