<?xml version="1.0" encoding="UTF-8" standalone="no"?>
<svg xmlns="http://www.w3.org/2000/svg" version="1.1" width="14" height="14">
  <path d="M0 0v11h2.3633a6.1366 6.1366 0 0 1-.5625-.998h-.7969V.996h8.998v.795a6.1262 6.1262 0 0 1 1.006.5664V0zm7.5 2.3027c-2.8627 0-5.1895 2.3346-5.1895 5.1973 0 2.8627 2.3268 5.1973 5.1895 5.1973 1.0954 0 2.1097-.3455 2.9492-.9278l1.9512 1.9532a.9453.9453 0 0 0 1.3398 0 .9456.9456 0 0 0 0-1.3399l-1.953-1.955c.5727-.8352.91-1.8424.91-2.9278 0-2.8627-2.3345-5.1973-5.1972-5.1973zm0 1.6543c1.964 0 3.543 1.579 3.543 3.543 0 1.964-1.579 3.543-3.543 3.543-1.964 0-3.5352-1.579-3.5352-3.543 0-1.964 1.5713-3.543 3.5352-3.543zM7.004 5.5V7h-1.5v1h1.5v1.5h1V8h1.5V7h-1.5V5.5z"/>
</svg>
